<?xml version="1.0" encoding="UTF-8" standalone="no"?><!DOCTYPE svg PUBLIC "-//W3C//DTD SVG 1.1//EN" "http://www.w3.org/Graphics/SVG/1.1/DTD/svg11.dtd"><!-- Generated by graphviz version 2.40.1 (20161225.0304)
 --><!-- Title: relations Pages: 1 --><svg xmlns="http://www.w3.org/2000/svg" xmlns:xlink="http://www.w3.org/1999/xlink" width="351pt" height="152pt" viewBox="0.00 0.00 350.95 152.00">
<g id="graph0" class="graph" transform="scale(1 1) rotate(0) translate(4 148)">
<title>relations</title>
<polygon fill="#ffffff" stroke="transparent" points="-4,4 -4,-148 346.9454,-148 346.9454,4 -4,4"/>
<!-- HPA -->
<g id="node1" class="node">
<title>HPA</title>
<polygon fill="#add8e6" stroke="#000000" points="54,-90 0,-90 0,-54 54,-54 54,-90"/>
<text text-anchor="middle" x="27" y="-67.8" font-family="Times,serif" font-size="14.00" fill="#000000">HPA</text>
</g>
<!-- Deployment -->
<g id="node2" class="node">
<title>Deployment</title>
<polygon fill="#ffe4c4" stroke="#000000" points="211.0733,-90 125.6575,-90 125.6575,-54 211.0733,-54 211.0733,-90"/>
<text text-anchor="middle" x="168.3654" y="-67.8" font-family="Times,serif" font-size="14.00" fill="#000000">Deployment</text>
</g>
<!-- HPA&#45;&gt;Deployment -->
<g id="edge1" class="edge">
<title>HPA-&gt;Deployment</title>
<path fill="none" stroke="#000000" d="M54.2567,-72C71.6321,-72 94.7236,-72 115.5872,-72"/>
<polygon fill="#000000" stroke="#000000" points="115.6155,-75.5001 125.6155,-72 115.6155,-68.5001 115.6155,-75.5001"/>
<text text-anchor="middle" x="89.8808" y="-76.2" font-family="Times,serif" font-size="14.00" fill="#000000">Scales</text>
</g>
<!-- Pod1 -->
<g id="node3" class="node">
<title>Pod1</title>
<polygon fill="#ffffe0" stroke="#000000" points="342.9454,-144 288.9454,-144 288.9454,-108 342.9454,-108 342.9454,-144"/>
<text text-anchor="middle" x="315.9454" y="-121.8" font-family="Times,serif" font-size="14.00" fill="#000000">Pod 1</text>
</g>
<!-- Deployment&#45;&gt;Pod1 -->
<g id="edge2" class="edge">
<title>Deployment-&gt;Pod1</title>
<path fill="none" stroke="#000000" d="M211.0517,-87.619C232.6578,-95.5248 258.6187,-105.024 279.3076,-112.5941"/>
<polygon fill="#000000" stroke="#000000" points="278.1085,-115.8822 288.7023,-116.0317 280.5139,-109.3085 278.1085,-115.8822"/>
</g>
<!-- Pod2 -->
<g id="node4" class="node">
<title>Pod2</title>
<polygon fill="#ffffe0" stroke="#000000" points="342.9454,-90 288.9454,-90 288.9454,-54 342.9454,-54 342.9454,-90"/>
<text text-anchor="middle" x="315.9454" y="-67.8" font-family="Times,serif" font-size="14.00" fill="#000000">Pod 2</text>
</g>
<!-- Deployment&#45;&gt;Pod2 -->
<g id="edge3" class="edge">
<title>Deployment-&gt;Pod2</title>
<path fill="none" stroke="#000000" d="M211.0517,-72C232.3645,-72 257.9146,-72 278.4622,-72"/>
<polygon fill="#000000" stroke="#000000" points="278.7023,-75.5001 288.7023,-72 278.7022,-68.5001 278.7023,-75.5001"/>
<text text-anchor="middle" x="249.9573" y="-76.2" font-family="Times,serif" font-size="14.00" fill="#000000">Creates</text>
</g>
<!-- PodN -->
<g id="node5" class="node">
<title>PodN</title>
<polygon fill="#ffffe0" stroke="#000000" points="342.9454,-36 288.9454,-36 288.9454,0 342.9454,0 342.9454,-36"/>
<text text-anchor="middle" x="315.9454" y="-13.8" font-family="Times,serif" font-size="14.00" fill="#000000">Pod N</text>
</g>
<!-- Deployment&#45;&gt;PodN -->
<g id="edge4" class="edge">
<title>Deployment-&gt;PodN</title>
<path fill="none" stroke="#000000" d="M211.0517,-56.381C232.6578,-48.4752 258.6187,-38.976 279.3076,-31.4059"/>
<polygon fill="#000000" stroke="#000000" points="280.5139,-34.6915 288.7023,-27.9683 278.1085,-28.1178 280.5139,-34.6915"/>
</g>
</g>
</svg>